<?xml version="1.0" encoding="utf-8"?>
<!-- Generator: Adobe Illustrator 25.0.0, SVG Export Plug-In . SVG Version: 6.00 Build 0)  -->
<svg version="1.1" id="Capa_1" xmlns="http://www.w3.org/2000/svg" xmlns:xlink="http://www.w3.org/1999/xlink" x="0px" y="0px"
	 viewBox="0 0 1000 800" style="enable-background:new 0 0 1000 800;" xml:space="preserve">
<style type="text/css">
	.st0{opacity:0.17;}
	.st1{fill-rule:evenodd;clip-rule:evenodd;fill:#C4C4C4;}
	.st2{fill:none;stroke:#37F42C;stroke-width:3;stroke-miterlimit:10;}
</style>
<g class="st0">
	<path class="st1" d="M1943.5,2144.2l1,22l85,5c20-29,71-16,71,23c0,40-51,53-71,24l-82,4l15,295c69-11,138-47,148-121l-43,14
		c-13,5-23-14-11-23l75-55c5-4,11-4,16,0l76,55c12,9,3,27-11,23l-43-14c-9,211-187,186-250,308c-5,9-18,9-23,0
		c-62-121-241-99-251-306l-42,12c-14,4-23-14-12-23l76-55c5-4,11-4,15,0l77,55c11,8,3,27-11,23l-51-14c10,74,87,110,156,121l15-295
		l-82-4c-21,29-71,16-71-24c0-39,50-52,71-23l85-5l1-22c-82-36-59-166,35-166C2002.5,1978.2,2025.5,2108.2,1943.5,2144.2z
		 M1907.5,1991.2c84,0,102,119,23,144l2,44l104,5c11-26,51-18,51,10c0,29-40,37-51,10l-103,6l16,322c98-11,175-64,175-154l-60,20
		l75-56l77,56l-60-19c0,219-184,194-249,319c-63-122-249-102-249-318l-59,18l76-56l76,56l-68-19c0,91,86,142,182,153l16-322l-102-6
		c-11,27-51,19-51-10c0-28,40-36,51-10l104-5l2-44C1806.5,2110.2,1824.5,1991.2,1907.5,1991.2z M1907.5,2036.2c16,0,29,13,29,29
		s-13,29-29,29s-29-13-29-29S1891.5,2036.2,1907.5,2036.2z M1907.5,2049.2c-9,0-16,7-16,16s7,16,16,16s16-7,16-16
		S1916.5,2049.2,1907.5,2049.2z"/>
</g>
<polygon class="st2" points="819.9,678 186.9,678 503,158 "/>
</svg>
